<?xml version="1.0" encoding="UTF-8" standalone="no"?>
<!-- Created with Inkscape (http://www.inkscape.org/) -->

<svg
   width="104.01208mm"
   height="104.01208mm"
   viewBox="0 0 104.01208 104.01208"
   version="1.1"
   id="svg5"
   inkscape:version="1.2.1 (9c6d41e410, 2022-07-14)"
   sodipodi:docname="Color.svg"
   xml:space="preserve"
   xmlns:inkscape="http://www.inkscape.org/namespaces/inkscape"
   xmlns:sodipodi="http://sodipodi.sourceforge.net/DTD/sodipodi-0.dtd"
   xmlns:xlink="http://www.w3.org/1999/xlink"
   xmlns="http://www.w3.org/2000/svg"
   xmlns:svg="http://www.w3.org/2000/svg"><sodipodi:namedview
     id="namedview7"
     pagecolor="#ffffff"
     bordercolor="#000000"
     borderopacity="0.51764706"
     inkscape:showpageshadow="2"
     inkscape:pageopacity="0.0"
     inkscape:pagecheckerboard="true"
     inkscape:deskcolor="#d1d1d1"
     inkscape:document-units="mm"
     showgrid="true"
     inkscape:zoom="0.74742565"
     inkscape:cx="-105.02717"
     inkscape:cy="208.71641"
     inkscape:window-width="1920"
     inkscape:window-height="1011"
     inkscape:window-x="0"
     inkscape:window-y="32"
     inkscape:window-maximized="1"
     inkscape:current-layer="svg5" /><defs
     id="defs2"><linearGradient
       id="linearGradient993"><stop
         style="stop-color:#818181;stop-opacity:1;"
         offset="0"
         id="stop997" /><stop
         style="stop-color:#b0b0b0;stop-opacity:0;"
         offset="1"
         id="stop999" /></linearGradient><radialGradient
       inkscape:collect="always"
       xlink:href="#linearGradient993"
       id="radialGradient1055"
       cx="114.44597"
       cy="109.563"
       fx="114.44597"
       fy="109.563"
       r="39.966503"
       gradientUnits="userSpaceOnUse"
       gradientTransform="matrix(1.3194328,0,0,1.3194328,-36.557788,-34.998012)" /><inkscape:perspective
       sodipodi:type="inkscape:persp3d"
       inkscape:vp_x="0 : 526.18109 : 1"
       inkscape:vp_y="0 : 1000 : 0"
       inkscape:vp_z="744.09448 : 526.18109 : 1"
       inkscape:persp3d-origin="372.04724 : 350.78739 : 1"
       id="perspective22915" /><inkscape:perspective
       id="perspective22878"
       inkscape:persp3d-origin="0.5 : 0.33333333 : 1"
       inkscape:vp_z="1 : 0.5 : 1"
       inkscape:vp_y="0 : 1000 : 0"
       inkscape:vp_x="0 : 0.5 : 1"
       sodipodi:type="inkscape:persp3d" /><linearGradient
       id="linearGradient6684"><stop
         style="stop-color:#ffbf00;stop-opacity:1.0000000;"
         offset="0.0000000"
         id="stop6686" /><stop
         style="stop-color:#ffffff;stop-opacity:1.0000000;"
         offset="1.0000000"
         id="stop6688" /></linearGradient><linearGradient
       id="linearGradient800"><stop
         id="stop998"
         offset="0"
         style="stop-color:#f3ff49;stop-opacity:1;" /><stop
         id="stop999-3"
         offset="1"
         style="stop-color:#ffa01e;stop-opacity:1;" /></linearGradient><linearGradient
       id="linearGradient5704"><stop
         style="stop-color:#5a5a5a;stop-opacity:1;"
         offset="0"
         id="stop5706" /><stop
         style="stop-color:#000000;stop-opacity:1.0000000;"
         offset="1.0000000"
         id="stop5708" /></linearGradient></defs><g
     inkscape:label="Layer 1"
     inkscape:groupmode="layer"
     id="layer1"
     transform="translate(-62.439929,-57.556964)"><circle
       style="fill:#ffffff;stroke:#f0f0f0;stroke-width:0.316177;stroke-opacity:1"
       id="path111"
       cx="114.44597"
       cy="109.563"
       r="47.759975"
       inkscape:export-filename="MainButton.png"
       inkscape:export-xdpi="125.03164"
       inkscape:export-ydpi="125.03164" /><circle
       style="fill:url(#radialGradient1055);fill-opacity:1;stroke-width:0.349101"
       id="circle964"
       cx="114.44597"
       cy="109.563"
       r="52.733109"
       inkscape:export-filename="MainButton.png"
       inkscape:export-xdpi="125.03164"
       inkscape:export-ydpi="125.03164" /><g
       id="g16710"
       transform="matrix(0.60706808,0,0,0.60706808,77.575297,75.570457)" /></g><path
     class="st0"
     d="m 56.66,105.35 c -5.94,4.6 -13.4,7.34 -21.5,7.34 C 15.74,112.69 0,96.95 0,77.53 0,64.06 7.58,52.36 18.7,46.46 c 1.96,6.96 5.68,13.19 10.65,18.16 4.64,4.64 10.38,8.2 16.79,10.24 -0.06,0.9 -0.09,1.81 -0.09,2.73 0.01,10.66 4.02,20.39 10.61,27.76 z"
     id="path16704"
     transform="matrix(0.60706807,0,0,0.60706807,15.135368,18.013493)" /><path
     class="st1"
     d="m 122.88,77.59 c 0,19.42 -15.74,35.16 -35.16,35.16 -19.42,0 -35.16,-15.75 -35.16,-35.16 0,-0.41 0.01,-0.82 0.02,-1.23 2.03,0.3 4.11,0.46 6.23,0.46 11.5,0 21.92,-4.66 29.46,-12.2 5.45,-5.45 9.4,-12.41 11.17,-20.19 13.66,4.83 23.44,17.85 23.44,33.16 z"
     id="path16706"
     transform="matrix(0.60706807,0,0,0.60706807,15.135368,18.013493)" /><path
     class="st2"
     d="M 93.97,35.16 C 93.97,54.58 78.23,70.32 58.81,70.32 39.39,70.32 23.65,54.58 23.65,35.16 23.65,15.74 39.39,0 58.81,0 78.23,0 93.97,15.74 93.97,35.16 Z"
     id="path16708"
     transform="matrix(0.60706807,0,0,0.60706807,15.135368,18.013493)" /><style
     type="text/css"
     id="style16702">.st0{fill-rule:evenodd;clip-rule:evenodd;fill:#6BBE66;} .st1{fill-rule:evenodd;clip-rule:evenodd;fill:#FF4141;} .st2{fill-rule:evenodd;clip-rule:evenodd;fill:#00A1F1;}</style></svg>
